# xmcd
#
# Track frame offsets:
#	150
#	19420
#	39945
#	66325
#	88987
#	108185
#	123695
#	145232
#	162572
#	181032
#	196082
#	212780
#
# Disc length: 3129 seconds
#
# Revision: 1
# Processed by: cddbd v1.5.2PL0 Copyright (c) Steve Scherf et al.
# Submitted via: CDmax 2.0
#
DISCID=ac0c370c
DTITLE=Maria Muldaur - Louisiana Love Call
DYEAR=1992
DGENRE=Blues
TTITLE0=Second Line
TTITLE1=Best Of Me
TTITLE2=Louisiana Love Call
TTITLE3=Cajun Moon
TTITLE4=Creole Eyes
TTITLE5=Blue Wave
TTITLE6=Dem Dat Know
TTITLE7=So Many Rivers To Cross
TTITLE8=Don't You Feel My Leg
TTITLE9=Layin' Right Here In Heaven
TTITLE10=Without A Friend Like You
TTITLE11=Southern Music
EXTD=
EXTT0=
EXTT1=
EXTT2=
EXTT3=
EXTT4=
EXTT5=
EXTT6=
EXTT7=
EXTT8=
EXTT9=
EXTT10=
EXTT11=
PLAYORDER=
